<svg width="58" height="58" viewBox="0 0 58 58" fill="none" xmlns="http://www.w3.org/2000/svg">
<path d="M16.3742 16.3746C14.7492 17.9996 13.4601 19.9288 12.5807 22.052C11.7013 24.1752 11.2487 26.4509 11.2487 28.749C11.2488 31.0472 11.7015 33.3228 12.581 35.446C13.4605 37.5691 14.7495 39.4983 16.3746 41.1233C17.9996 42.7483 19.9288 44.0373 22.0521 44.9167C24.1753 45.7961 26.4509 46.2488 28.749 46.2487C31.0472 46.2487 33.3228 45.796 35.446 44.9165C37.5692 44.037 39.4983 42.7479 41.1233 41.1229C42.7483 39.4978 44.0373 37.5686 44.9167 35.4454C45.7962 33.3222 46.2488 31.0465 46.2487 28.7484C46.2487 26.4503 45.796 24.1747 44.9165 22.0515C44.037 19.9283 42.7479 17.9991 41.1229 16.3741C39.4978 14.7491 37.5686 13.4601 35.4454 12.5807C33.3222 11.7013 31.0466 11.2487 28.7484 11.2487C26.4503 11.2488 24.1747 11.7014 22.0515 12.5809C19.9283 13.4604 17.9991 14.7495 16.3742 16.3746V16.3746Z" fill="#FF5576"/>
<path d="M28.975 57.975C21.525 57.975 14.125 55.125 8.475 49.475C-2.825 38.175 -2.825 19.775 8.475 8.475C19.775 -2.825 38.175 -2.825 49.475 8.475C60.775 19.775 60.775 38.175 49.475 49.475C43.825 55.125 36.425 57.975 28.975 57.975ZM28.975 2.975C22.325 2.975 15.675 5.525 10.575 10.575C0.475 20.725 0.475 37.225 10.575 47.375C20.725 57.525 37.225 57.525 47.325 47.375C57.475 37.225 57.475 20.725 47.325 10.625C42.275 5.525 35.625 2.975 28.975 2.975Z" fill="#444B54"/>
<path d="M38.5 27.5H30.5V19.5C30.5 18.65 29.85 18 29 18C28.15 18 27.5 18.65 27.5 19.5V27.5H19.5C18.65 27.5 18 28.15 18 29C18 29.85 18.65 30.5 19.5 30.5H27.5V38.5C27.5 39.35 28.15 40 29 40C29.85 40 30.5 39.35 30.5 38.5V30.5H38.5C39.35 30.5 40 29.85 40 29C40 28.15 39.35 27.5 38.5 27.5Z" fill="white"/>
</svg>
